<?xml version="1.0" standalone="no"?>
<!DOCTYPE svg PUBLIC "-//W3C//DTD SVG 20010904//EN"
 "http://www.w3.org/TR/2001/REC-SVG-20010904/DTD/svg10.dtd">
<svg version="1.0" xmlns="http://www.w3.org/2000/svg"
 width="512.000000pt" height="512.000000pt" viewBox="0 0 512.000000 512.000000"
 preserveAspectRatio="xMidYMid meet">
<metadata>
Created by potrace 1.16, written by Peter Selinger 2001-2019
</metadata>
<g transform="translate(0.000000,512.000000) scale(0.100000,-0.100000)"
fill="#000000" stroke="none">
<path d="M1540 5098 c-17 -19 -20 -35 -20 -120 l0 -98 -54 0 c-30 0 -62 -3
-71 -6 -21 -8 -195 -356 -195 -390 0 -41 17 -62 60 -75 22 -7 40 -14 40 -16 0
-2 -22 -48 -50 -103 -27 -55 -50 -112 -50 -128 0 -40 24 -69 65 -76 19 -4 35
-9 35 -12 0 -2 -22 -49 -50 -104 -54 -107 -60 -145 -31 -181 14 -18 31 -23 80
-27 l61 -4 0 -79 0 -79 -303 0 c-275 0 -305 -2 -337 -19 -66 -35 -75 -57 -78
-203 -3 -86 0 -140 8 -159 17 -41 73 -87 115 -95 l35 -6 0 -1238 0 -1237 -65
-5 c-74 -6 -120 -30 -152 -78 -22 -32 -23 -42 -23 -244 0 -236 5 -255 72 -296
33 -20 55 -20 1928 -20 1873 0 1895 0 1928 20 67 41 72 60 72 296 0 202 -1
212 -23 244 -32 48 -78 72 -152 78 l-65 5 0 1237 0 1238 35 6 c42 8 98 54 115
95 8 19 11 73 8 159 -3 146 -12 168 -78 203 -32 17 -62 19 -337 19 l-303 0 0
79 0 79 61 4 c49 4 66 9 80 27 29 36 23 74 -31 181 -28 55 -50 102 -50 104 0
3 16 8 35 12 41 7 65 36 65 76 0 16 -22 73 -50 128 -27 55 -50 101 -50 103 0
2 18 9 40 16 43 13 60 34 60 75 0 34 -174 382 -195 390 -9 3 -41 6 -71 6 l-54
0 0 98 c0 117 -14 142 -79 142 -62 0 -75 -24 -79 -141 l-4 -99 -57 0 c-43 0
-62 -5 -74 -17 -8 -10 -54 -97 -102 -193 -90 -182 -95 -202 -58 -242 9 -10 31
-20 49 -24 l32 -6 -54 -110 c-30 -61 -54 -119 -54 -128 0 -29 39 -69 75 -76
l33 -6 -54 -110 c-30 -61 -54 -119 -54 -129 0 -10 10 -30 23 -45 19 -22 34
-28 80 -32 l57 -4 0 -79 0 -79 -240 0 -240 0 0 80 0 80 41 0 c64 0 107 25 115
67 5 28 -2 52 -45 139 -28 58 -51 107 -51 109 0 2 13 6 30 10 35 8 70 48 70
80 0 12 -22 68 -50 124 -27 56 -50 104 -50 106 0 2 13 6 30 10 35 8 70 48 70
80 0 28 -154 341 -183 373 -17 18 -31 22 -79 22 l-58 0 0 94 c0 79 -3 97 -21
120 -16 20 -29 26 -59 26 -30 0 -43 -6 -59 -26 -18 -23 -21 -41 -21 -120 l0
-94 -58 0 c-48 0 -62 -4 -79 -22 -29 -32 -183 -345 -183 -373 0 -32 35 -72 70
-80 17 -4 30 -8 30 -10 0 -2 -22 -50 -50 -106 -27 -56 -50 -112 -50 -124 0
-32 35 -72 70 -80 17 -4 30 -8 30 -10 0 -2 -23 -51 -51 -109 -43 -87 -50 -111
-45 -139 8 -42 51 -67 115 -67 l41 0 0 -80 0 -80 -240 0 -240 0 0 79 0 79 57
4 c46 4 61 10 80 32 13 15 23 35 23 45 0 10 -24 68 -54 129 l-54 110 33 6 c36
7 75 47 75 76 0 9 -24 67 -54 128 l-54 110 32 6 c18 4 40 14 49 24 37 40 32
60 -58 242 -48 96 -94 183 -102 193 -12 12 -31 17 -74 17 l-57 0 -4 99 c-2 80
-7 103 -22 120 -26 29 -88 29 -116 -1z m210 -448 c22 -44 40 -82 40 -85 0 -3
-88 -5 -195 -5 l-195 0 42 85 42 85 113 0 113 0 40 -80z m968 -5 l42 -85 -200
0 -200 0 42 85 42 85 116 0 116 0 42 -85z m960 0 l42 -85 -195 0 c-107 0 -195
2 -195 5 0 3 18 41 40 85 l40 80 113 0 113 0 42 -85z m-1928 -315 c22 -44 40
-82 40 -85 0 -3 -88 -5 -195 -5 l-195 0 42 85 42 85 113 0 113 0 40 -80z m968
-7 l43 -83 -201 0 -200 0 36 73 c20 39 41 78 47 85 7 9 40 12 121 10 l111 -3
43 -82z m960 2 l42 -85 -195 0 c-107 0 -195 2 -195 5 0 3 18 41 40 85 l40 80
113 0 113 0 42 -85z m-1928 -315 c22 -44 40 -82 40 -85 0 -3 -88 -5 -195 -5
l-195 0 42 85 42 85 113 0 113 0 40 -80z m966 -7 l45 -83 -201 0 -202 0 35 63
c19 34 40 72 46 85 12 22 16 23 122 20 l110 -3 45 -82z m962 2 l42 -85 -195 0
c-107 0 -195 2 -195 5 0 3 18 41 40 85 l40 80 113 0 113 0 42 -85z m-1998
-320 l0 -85 -85 0 -85 0 0 78 c0 43 3 82 7 85 3 4 42 7 85 7 l78 0 0 -85z
m960 0 l0 -85 -80 0 -80 0 0 85 0 85 80 0 80 0 0 -85z m968 -2 l3 -83 -86 0
-85 0 0 85 0 86 83 -3 82 -3 3 -82z m720 -320 l3 -83 -125 0 c-144 0 -172 -8
-190 -52 -27 -64 12 -108 99 -108 l43 0 7 -82 c3 -46 5 -605 3 -1243 l-3
-1160 -1424 -5 -1424 -5 -20 -27 c-23 -30 -18 -67 13 -98 20 -20 40 -20 1560
-20 l1540 0 0 -165 0 -165 -1850 0 -1850 0 0 165 0 165 174 0 c167 0 176 1
201 22 18 16 26 34 27 56 2 49 -27 72 -95 79 l-57 6 0 1238 0 1239 280 0 280
0 0 -53 c0 -30 6 -62 15 -74 31 -44 111 -37 134 13 6 14 11 45 11 69 l0 45
400 0 400 0 0 -49 c0 -64 31 -104 80 -104 49 0 80 40 80 104 l0 49 400 0 400
0 0 -42 c0 -82 47 -128 107 -107 37 12 53 45 53 104 l0 45 88 0 c98 0 132 13
146 52 12 35 -7 82 -40 97 -18 8 -429 11 -1514 11 l-1490 0 0 80 0 79 128 4
c70 1 865 3 1767 2 l1640 0 3 -82z"/>
<path d="M2505 2636 c-16 -7 -40 -24 -51 -37 -30 -33 -775 -1325 -791 -1372
-23 -67 17 -152 85 -178 30 -12 1594 -12 1624 0 68 26 108 111 85 178 -16 47
-761 1338 -791 1372 -42 47 -106 62 -161 37z m425 -788 c201 -348 366 -638
368 -645 3 -11 -135 -13 -738 -13 -603 0 -741 2 -738 13 4 18 732 1277 738
1277 3 0 169 -285 370 -632z"/>
<path d="M2515 2088 c-19 -18 -37 -61 -75 -185 -28 -89 -50 -175 -50 -192 0
-50 30 -71 100 -71 42 0 60 -4 60 -13 0 -7 -14 -57 -31 -111 -17 -54 -31 -112
-31 -129 -2 -57 75 -89 120 -49 24 20 122 324 122 376 0 48 -29 69 -100 74
-36 3 -60 9 -60 16 0 6 14 54 30 106 38 119 38 152 4 179 -34 27 -57 26 -89
-1z"/>
</g>
</svg>
