<?xml version="1.0" standalone="no"?>
<!DOCTYPE svg PUBLIC "-//W3C//DTD SVG 20010904//EN"
 "http://www.w3.org/TR/2001/REC-SVG-20010904/DTD/svg10.dtd">
<svg version="1.0" xmlns="http://www.w3.org/2000/svg"
 width="512.000000pt" height="512.000000pt" viewBox="0 0 512.000000 512.000000"
 preserveAspectRatio="xMidYMid meet">
<metadata>
Created by potrace 1.16, written by Peter Selinger 2001-2019
</metadata>
<g transform="translate(0.000000,512.000000) scale(0.100000,-0.100000)"
fill="#000000" stroke="none">
<path d="M1540 5098 c-17 -19 -20 -35 -20 -120 l0 -98 -54 0 c-30 0 -62 -3
-71 -6 -21 -8 -195 -356 -195 -390 0 -41 17 -62 60 -75 22 -7 40 -14 40 -16 0
-2 -22 -48 -50 -103 -27 -55 -50 -112 -50 -128 0 -40 24 -69 65 -76 19 -4 35
-9 35 -12 0 -2 -22 -49 -50 -104 -54 -107 -60 -145 -31 -181 14 -18 31 -23 80
-27 l61 -4 0 -79 0 -79 -303 0 c-275 0 -305 -2 -337 -19 -66 -35 -75 -57 -78
-203 -3 -86 0 -140 8 -159 17 -41 73 -87 115 -95 l35 -6 0 -1238 0 -1237 -65
-5 c-74 -6 -120 -30 -152 -78 -22 -32 -23 -42 -23 -244 0 -236 5 -255 72 -296
33 -20 55 -20 1928 -20 1873 0 1895 0 1928 20 67 41 72 60 72 296 0 202 -1
212 -23 244 -32 48 -78 72 -152 78 l-65 5 0 1237 0 1238 35 6 c42 8 98 54 115
95 8 19 11 73 8 159 -3 146 -12 168 -78 203 -32 17 -62 19 -337 19 l-303 0 0
79 0 79 61 4 c49 4 66 9 80 27 29 36 23 74 -31 181 -28 55 -50 102 -50 104 0
3 16 8 35 12 41 7 65 36 65 76 0 16 -22 73 -50 128 -27 55 -50 101 -50 103 0
2 18 9 40 16 43 13 60 34 60 75 0 34 -174 382 -195 390 -9 3 -41 6 -71 6 l-54
0 0 98 c0 117 -14 142 -79 142 -62 0 -75 -24 -79 -141 l-4 -99 -57 0 c-43 0
-62 -5 -74 -17 -8 -10 -54 -97 -102 -193 -90 -182 -95 -202 -58 -242 9 -10 31
-20 49 -24 l32 -6 -54 -110 c-30 -61 -54 -119 -54 -128 0 -29 39 -69 75 -76
l33 -6 -54 -110 c-30 -61 -54 -119 -54 -129 0 -10 10 -30 23 -45 19 -22 34
-28 80 -32 l57 -4 0 -79 0 -79 -240 0 -240 0 0 80 0 80 41 0 c64 0 107 25 115
67 5 28 -2 52 -45 139 -28 58 -51 107 -51 109 0 2 13 6 30 10 35 8 70 48 70
80 0 12 -22 68 -50 124 -27 56 -50 104 -50 106 0 2 13 6 30 10 35 8 70 48 70
80 0 28 -154 341 -183 373 -17 18 -31 22 -79 22 l-58 0 0 94 c0 79 -3 97 -21
120 -16 20 -29 26 -59 26 -30 0 -43 -6 -59 -26 -18 -23 -21 -41 -21 -120 l0
-94 -58 0 c-48 0 -62 -4 -79 -22 -29 -32 -183 -345 -183 -373 0 -32 35 -72 70
-80 17 -4 30 -8 30 -10 0 -2 -22 -50 -50 -106 -27 -56 -50 -112 -50 -124 0
-32 35 -72 70 -80 17 -4 30 -8 30 -10 0 -2 -23 -51 -51 -109 -43 -87 -50 -111
-45 -139 8 -42 51 -67 115 -67 l41 0 0 -80 0 -80 -240 0 -240 0 0 79 0 79 57
4 c46 4 61 10 80 32 13 15 23 35 23 45 0 10 -24 68 -54 129 l-54 110 33 6 c36
7 75 47 75 76 0 9 -24 67 -54 128 l-54 110 32 6 c18 4 40 14 49 24 37 40 32
60 -58 242 -48 96 -94 183 -102 193 -12 12 -31 17 -74 17 l-57 0 -4 99 c-2 80
-7 103 -22 120 -26 29 -88 29 -116 -1z m210 -458 l40 -80 -190 0 c-104 0 -190
2 -190 5 0 2 17 38 37 80 l37 75 113 0 113 0 40 -80z m960 0 l40 -80 -190 0
-190 0 40 80 40 80 110 0 110 0 40 -80z m963 5 c20 -42 37 -78 37 -80 0 -3
-86 -5 -190 -5 l-190 0 40 80 40 80 113 0 113 0 37 -75z m-1923 -325 l40 -80
-190 0 c-104 0 -190 2 -190 5 0 2 17 38 37 80 l37 75 113 0 113 0 40 -80z
m960 0 l40 -80 -190 0 -190 0 40 80 40 80 110 0 110 0 40 -80z m963 5 c20 -42
37 -78 37 -80 0 -3 -86 -5 -190 -5 l-190 0 40 80 40 80 113 0 113 0 37 -75z
m-1923 -325 l40 -80 -190 0 c-104 0 -190 2 -190 5 0 2 17 38 37 80 l37 75 113
0 113 0 40 -80z m960 0 l40 -80 -190 0 -190 0 40 80 40 80 110 0 110 0 40 -80z
m963 5 c20 -42 37 -78 37 -80 0 -3 -86 -5 -190 -5 l-190 0 40 80 40 80 113 0
113 0 37 -75z m-1993 -325 l0 -80 -80 0 -80 0 0 80 0 80 80 0 80 0 0 -80z
m960 0 l0 -80 -80 0 -80 0 0 80 0 80 80 0 80 0 0 -80z m960 0 l0 -80 -80 0
-80 0 0 80 0 80 80 0 80 0 0 -80z m720 -320 l0 -80 -131 0 c-72 0 -139 -4
-149 -10 -26 -14 -41 -64 -29 -99 12 -35 46 -51 104 -51 l45 0 0 -1240 0
-1240 -1399 0 c-995 0 -1407 -3 -1430 -11 -53 -19 -69 -85 -31 -127 l21 -22
1539 0 1540 0 0 -165 0 -165 -1840 0 -1840 0 0 165 0 165 174 0 c155 0 176 2
197 19 16 13 23 29 23 55 0 52 -28 76 -97 83 l-57 6 0 1238 0 1239 280 0 280
0 0 -55 c0 -85 47 -124 113 -94 32 14 47 49 47 104 l0 45 400 0 400 0 0 -54
c0 -73 22 -101 80 -101 58 0 80 28 80 101 l0 54 400 0 400 0 0 -45 c0 -55 15
-90 47 -104 37 -17 62 -13 88 14 21 20 25 34 25 79 l0 54 101 4 c92 3 103 5
120 27 25 31 24 79 -3 108 l-21 23 -1499 0 -1498 0 0 80 0 80 1760 0 1760 0 0
-80z"/>
<path d="M2492 2634 c-18 -9 -41 -29 -51 -43 -10 -14 -190 -324 -401 -689
-300 -520 -383 -672 -387 -705 -5 -53 20 -103 66 -134 l34 -23 807 0 807 0 34
23 c46 31 71 81 66 134 -4 33 -89 189 -398 724 -269 466 -403 688 -423 702
-38 27 -112 32 -154 11z m436 -793 c199 -345 362 -631 362 -635 0 -3 -328 -6
-730 -6 -401 0 -730 3 -730 6 0 10 724 1264 730 1264 3 0 168 -283 368 -629z"/>
<path d="M2505 2090 c-28 -31 -127 -359 -120 -396 7 -40 53 -64 120 -64 41 0
46 -2 41 -17 -4 -10 -21 -63 -38 -119 -28 -90 -30 -105 -19 -132 21 -50 99
-66 131 -27 13 16 120 356 120 383 0 10 -9 31 -21 46 -18 23 -27 26 -85 26
-35 0 -64 1 -64 3 0 1 16 52 35 112 41 129 42 144 14 179 -26 33 -86 37 -114
6z"/>
</g>
</svg>
